<?xml version="1.0" encoding="utf-8"?>
<!-- Generator: Adobe Illustrator 18.1.1, SVG Export Plug-In . SVG Version: 6.00 Build 0)  -->
<svg version="1.1" id="Layer_1" xmlns="http://www.w3.org/2000/svg" xmlns:xlink="http://www.w3.org/1999/xlink" x="0px" y="0px"
	 viewBox="0 0 52.1 52.1" enable-background="new 0 0 52.1 52.1" xml:space="preserve">
<g>
	<g>
		<path stroke="#000000" stroke-width="2" stroke-miterlimit="10" d="M48.1,4.1c-1.7-1.6-5.9-2.8-10.2-2.8c-4.9,0-9.1,1.5-11.8,4.2
			c-2.6,2.6-3.4,5.4-4.1,7.8c-0.6,2.2-1.1,4.1-2.8,5.8c-1.7,1.7-3.6,2.2-5.8,2.8C11,22.6,8.2,23.3,5.6,26c-6.5,6.5-4.3,19-1.4,21.9
			c1.6,1.6,5.9,2.8,10.1,2.8c4.9,0,9.1-1.5,11.8-4.2c2.6-2.6,3.4-5.4,4.1-7.8c0.6-2.2,1.1-4.1,2.8-5.8c1.7-1.7,3.6-2.2,5.8-2.8
			c2.4-0.7,5.2-1.4,7.8-4.1C53.1,19.5,50.9,7,48.1,4.1z M45.2,24.6c-2.3,2.3-4.5,2.9-7,3.6c-2.3,0.6-4.6,1.3-6.7,3.3
			c-2.1,2-2.7,4.4-3.3,6.7c-0.7,2.4-1.3,4.7-3.6,7c-3.1,3.1-7.8,3.6-10.4,3.6c-4,0-7.7-1.1-8.7-2.2c-2-2.2-4.1-13.5,1.5-19.2
			c2.3-2.3,4.5-2.9,7-3.6c2.3-0.6,4.6-1.3,6.7-3.3c2.1-2.1,2.7-4.4,3.3-6.7c0.7-2.4,1.3-4.7,3.6-7c3.1-3,7.8-3.5,10.3-3.5
			c4,0,7.7,1.1,8.7,2.2C48.8,7.7,50.9,19,45.2,24.6z M39.6,8.6v-2c-1,0-4.8,0-6.5,1.7l1.3,1.4C35.2,8.9,37.6,8.6,39.6,8.6z M28,12.8
			c0,1.9,0,3.8-0.7,4.1l0.9,2.2c1.4-0.6,1.5-4.1,1.4-5.6L28,12.8z M8,34.5c0,0,0,4.4,0.8,6.7l1.9-0.6c-0.6-1.9-0.7-6.1-0.7-6.1H8z
			 M16.8,29.3l-0.9-1.8c-0.1,0.1-3.2,1.6-4,4.1l1.9,0.6C14.3,30.9,16.2,29.6,16.8,29.3z M14.4,41.5v2c0,0,4.6,0,6.3-1.7l-1.5-1.4
			C18.5,41.3,15.4,41.5,14.4,41.5z M23,31.3c-0.1-0.1-0.1-0.1-0.1-0.1c0.2,0.5,0.1,2.8-0.2,4.9l2,0.3c0.8-5.4,0-6.2-0.3-6.5L23,31.3
			z M13.3,37.1l0.4,2c0.4-0.1,4.1-0.9,5-3.5L16.8,35C16.3,36.2,14,37,13.3,37.1z M27.2,27.3l1.7,1c0.9-1.5,1.8-3,2.8-3.1v-2
			C29.6,23.2,27.9,26.1,27.2,27.3z M38.5,21.4l-0.7,0.7l-0.7,0.7c0.4,0.4,1.1,0.8,2,0.8s1.9-0.4,3-1.5l-1.4-1.4
			C39.3,22,38.6,21.5,38.5,21.4z M43.2,11.9c0.6,1.9,0.7,6.1,0.7,6.1h2c0,0,0-4.5-0.8-6.7L43.2,11.9z M38,13.4l-1.9-0.6
			c-0.5,1.4-2.3,2.6-3,3l0.9,1.8C34.1,17.4,37.1,15.9,38,13.4z"/>
	</g>
</g>
</svg>
