<svg width="1023pt" height="767pt" viewBox="0 0 1023 767" version="1.1" xmlns="http://www.w3.org/2000/svg" class="icon icon-basket">
    <path d=" M 416.05 36.28 C 439.55 20.14 467.56 11.07 495.93 9.15 C 523.22 7.22 551.16 10.85 576.44 21.57 C 603.97 33.07 627.53 52.94 645.08 76.92 C 665.97 105.39 679.18 138.81 687.60 172.91 C 691.69 189.53 694.60 206.43 696.63 223.41 C 790.08 223.42 883.54 223.40 976.99 223.43 C 991.30 223.42 1004.95 233.23 1009.41 246.84 C 1011.94 254.07 1011.96 262.12 1009.53 269.38 C 957.37 424.59 905.28 579.81 853.10 735.02 C 848.63 748.46 835.18 758.22 821.01 758.32 C 614.66 758.35 408.31 758.33 201.96 758.33 C 190.61 758.29 179.53 752.21 173.36 742.71 C 170.69 738.85 169.25 734.35 167.83 729.94 C 116.22 576.27 64.60 422.61 13.00 268.95 C 8.11 254.51 14.10 237.33 26.99 229.16 C 32.59 225.46 39.27 223.44 45.98 223.42 C 138.27 223.40 230.56 223.43 322.85 223.41 C 327.41 184.90 336.64 146.57 353.61 111.54 C 367.94 81.96 388.64 54.85 416.05 36.28 M 468.39 86.54 C 447.38 95.84 431.57 113.88 420.63 133.67 C 405.43 161.31 397.50 192.36 393.08 223.42 C 470.85 223.40 548.62 223.43 626.38 223.41 C 622.97 199.09 617.27 174.96 607.82 152.25 C 600.40 134.59 590.54 117.64 576.77 104.17 C 564.59 92.18 548.94 83.77 532.15 80.49 C 510.95 76.48 488.26 77.72 468.39 86.54 M 94.62 293.09 C 105.61 325.81 116.57 358.55 127.60 391.26 C 169.98 391.23 212.37 391.27 254.75 391.24 C 254.75 358.52 254.75 325.81 254.75 293.09 C 201.37 293.07 147.99 293.08 94.62 293.09 M 301.17 293.09 C 301.17 325.81 301.16 358.52 301.17 391.24 C 362.94 391.26 424.72 391.25 486.49 391.24 C 486.50 358.52 486.50 325.80 486.49 293.08 C 424.72 293.09 362.94 293.07 301.17 293.09 M 532.92 293.09 C 532.92 325.81 532.91 358.52 532.93 391.24 C 594.73 391.26 656.53 391.26 718.33 391.24 C 718.34 358.52 718.34 325.80 718.33 293.08 C 656.52 293.08 594.72 293.08 532.92 293.09 M 764.67 293.09 C 764.67 325.81 764.66 358.52 764.68 391.24 C 808.15 391.26 851.61 391.25 895.08 391.25 C 906.06 358.52 917.09 325.82 928.03 293.08 C 873.58 293.08 819.12 293.08 764.67 293.09 M 143.19 437.67 C 155.23 473.71 167.41 509.70 179.45 545.74 C 204.55 545.76 229.65 545.74 254.75 545.75 C 254.76 509.73 254.74 473.70 254.76 437.68 C 217.57 437.64 180.38 437.68 143.19 437.67 M 301.17 437.68 C 301.17 473.70 301.16 509.72 301.18 545.75 C 362.94 545.75 424.71 545.74 486.48 545.76 C 486.51 509.73 486.50 473.70 486.49 437.67 C 424.72 437.66 362.94 437.66 301.17 437.68 M 532.93 437.67 C 532.91 473.70 532.91 509.72 532.93 545.75 C 594.73 545.76 656.52 545.74 718.32 545.75 C 718.34 509.72 718.34 473.70 718.32 437.67 C 656.52 437.66 594.73 437.66 532.93 437.67 M 764.67 437.67 C 764.66 473.70 764.65 509.73 764.68 545.75 C 790.84 545.75 817.00 545.75 843.16 545.75 C 855.31 509.74 867.39 473.71 879.47 437.67 C 841.21 437.66 802.94 437.66 764.67 437.67 M 195.14 592.13 C 205.74 624.36 216.74 656.46 227.45 688.66 C 236.55 688.68 245.64 688.66 254.74 688.67 C 254.76 656.50 254.74 624.34 254.75 592.17 C 234.88 592.14 215.01 592.22 195.14 592.13 M 301.17 592.17 C 301.17 624.34 301.16 656.50 301.18 688.67 C 362.95 688.65 424.73 688.69 486.51 688.65 C 486.48 656.49 486.52 624.32 486.49 592.16 C 424.71 592.18 362.94 592.16 301.17 592.17 M 532.92 592.17 C 532.92 624.34 532.90 656.50 532.93 688.66 C 594.74 688.65 656.54 688.70 718.34 688.64 C 718.32 656.48 718.35 624.33 718.33 592.17 C 656.52 592.17 594.72 592.16 532.92 592.17 M 764.68 592.17 C 764.64 624.32 764.70 656.46 764.64 688.61 C 774.81 688.74 784.97 688.62 795.14 688.68 C 806.02 656.53 816.78 624.34 827.59 592.17 C 806.62 592.17 785.65 592.17 764.68 592.17 Z" />
</svg>