<svg version="1.1" xmlns="http://www.w3.org/2000/svg" xmlns:xlink="http://www.w3.org/1999/xlink" x="0px" y="0px" viewBox="0 0 20.5 20.5" enable-background="new 0 0 20.5 20.5" xml:space="preserve">
    <path d="M20.2,0.3c-3.4-0.3-6,2.2-5.7,5.7C18,6.3,20.5,3.8,20.2,0.3"/>
    <path d="M11,9.5c2.1,2.8,5.8,2.9,8.4,0.1C17.3,6.7,13.6,6.7,11,9.5"/>
    <path d="M11,9.5c2.8-2.6,2.7-6.3-0.1-8.4C8.2,3.6,8.2,7.4,11,9.5"/>
    <path d="M6.1,14.4c2.1,2.8,5.8,2.9,8.4,0.1C12.4,11.7,8.6,11.6,6.1,14.4"/>
    <path d="M6,6c-2.8,2.6-2.8,6.3,0.1,8.4C8.9,11.9,8.8,8.1,6,6"/>
    <path d="M0.5,18.6c-0.4,0.4-0.4,1,0,1.4c0.2,0.2,0.4,0.3,0.7,0.3s0.5-0.1,0.7-0.3l4-4l-1.4-1.4L0.5,18.6z"/>
</svg>